<?xml version="1.0" encoding="utf-8"?>
<!-- Generator: Adobe Illustrator 26.3.1, SVG Export Plug-In . SVG Version: 6.00 Build 0)  -->
<svg version="1.1" id="Layer_1" xmlns="http://www.w3.org/2000/svg" xmlns:xlink="http://www.w3.org/1999/xlink" x="0px" y="0px"
	 viewBox="0 0 622 218" style="enable-background:new 0 0 622 218;" xml:space="preserve">
<style type="text/css">
	.st0{fill:#B5B5B5;stroke:#FFFFFF;stroke-miterlimit:10;}
	.st1{fill:none;}
	.st2{fill:#DCDEE0;}
	.st3{fill:none;stroke:#85888D;stroke-width:2;}
	.st4{fill:none;stroke:#6FBE44;stroke-width:2;}
	.st5{fill:url(#SVGID_1_);stroke:#231F20;stroke-miterlimit:10;}
	.st6{fill:#FFFFFF;stroke:#231F20;stroke-miterlimit:10;}
	.st7{fill:#45BEEE;}
	.st8{fill:url(#SVGID_00000048495125096171774090000015768557160313540257_);stroke:#231F20;stroke-miterlimit:10;}
	.st9{fill:none;stroke:#000000;stroke-width:2;}
	.st10{fill:url(#SVGID_00000078036430521095757500000004401030589076676514_);stroke:#231F20;stroke-miterlimit:10;}
	.st11{fill:url(#SVGID_00000116212120878982552400000006704601402985032086_);stroke:#231F20;stroke-miterlimit:10;}
	.st12{fill:url(#SVGID_00000114050221670744099500000004748078162734587314_);stroke:#231F20;stroke-miterlimit:10;}
	.st13{fill:url(#SVGID_00000018234032132508466290000004725442925574049457_);stroke:#231F20;stroke-miterlimit:10;}
	.st14{fill:#FFFFFF;stroke:#000000;stroke-miterlimit:10;}
	.st15{fill:none;stroke:#70BF41;stroke-width:2;}
	.st16{fill:url(#SVGID_00000134241752812012821600000007666997627047870856_);stroke:#231F20;stroke-miterlimit:10;}
	.st17{font-family:'ArialMT';}
	.st18{font-size:18px;}
	.st19{font-family:'Helvetica';}
	.st20{font-size:12px;}
	.st21{font-family:'MyriadPro-Regular';}
	.st22{fill:url(#SVGID_00000180365607966670971790000005662605531806530223_);stroke:#231F20;stroke-miterlimit:10;}
	.st23{fill:url(#SVGID_00000048500154379741085790000011939599213776767149_);stroke:#231F20;stroke-miterlimit:10;}
	.st24{fill:none;stroke:#231F20;stroke-width:2;}
	.st25{fill:url(#SVGID_00000083047101548375078670000008182678818419449790_);stroke:#231F20;stroke-miterlimit:10;}
	.st26{fill:url(#SVGID_00000006699888653200335010000004138379425018485395_);stroke:#231F20;stroke-miterlimit:10;}
	.st27{fill:url(#SVGID_00000152245262242735748350000016438280315819373486_);stroke:#231F20;stroke-miterlimit:10;}
	.st28{fill:#231F20;}
	.st29{font-size:24px;}
</style>
<g id="Layer_5_00000120533940491463522380000003447858052343301046_">
	<path class="st0" d="M598,23c0-8.3-6.7-15-15-15H198c-8.3,0-15,6.7-15,15v167c0,8.3,6.7,15,15,15h385c8.3,0,15-6.7,15-15V23z"/>
	<rect x="197" y="19" class="st1" width="70" height="28"/>
	<text transform="matrix(1 0 0 1 197 31.4199)" class="st17 st18">.git</text>
</g>
<rect x="229" y="166" class="st1" width="147" height="17"/>
<text transform="matrix(1 0 0 1 269.4766 174.6279)" class="st19 st20">staging area</text>
<rect x="464.8" y="179" class="st1" width="147" height="17"/>
<text transform="matrix(1 0 0 1 511.9414 187.6279)" class="st19 st20">repository</text>
<rect x="13" y="9" class="st1" width="140" height="23"/>
<text transform="matrix(1 0 0 1 13 17.52)" class="st21 st20">Working Directory</text>
<g>
	
		<linearGradient id="SVGID_1_" gradientUnits="userSpaceOnUse" x1="302.499" y1="-421.3322" x2="302.499" y2="-476.5792" gradientTransform="matrix(1 0 0 -1 0 -334)">
		<stop  offset="9.819999e-02" style="stop-color:#C4C4C4"/>
		<stop  offset="0.5326" style="stop-color:#686868"/>
		<stop  offset="1" style="stop-color:#000000"/>
	</linearGradient>
	<path class="st5" d="M252.5,141.6c0-9.3,22.4-16.8,50-16.8s50,7.5,50,16.8v1c0,0,0-2.1,0-3.1c0-1,0-35.7,0-35.7v0.4
		c0-9.3-22.4-16.8-50-16.8s-50,7.5-50,16.8v-0.4c0,0,0,34.5,0,35.7c0,1.2,0,3.1,0,3.1V141.6z"/>
	<g>
		<path class="st6" d="M352.5,103.7c0,0,0,34.7,0,35.7c0,1,0.4,3.1,0.4,3.1c0,9.3-22.8,16.8-50.4,16.8s-50.4-7.5-50.4-16.8
			c0,0,0.4-1.9,0.4-3.1c0-1.2,0-35.7,0-35.7c0,9.3,22.4,16.8,50,16.8S352.5,113,352.5,103.7z"/>
	</g>
</g>
<g>
	
		<linearGradient id="SVGID_00000101803976739640768990000010810447259149916044_" gradientUnits="userSpaceOnUse" x1="535.8989" y1="-420.225" x2="535.8989" y2="-475.472" gradientTransform="matrix(1 0 0 -1 0 -334)">
		<stop  offset="9.819999e-02" style="stop-color:#C4C4C4"/>
		<stop  offset="0.5326" style="stop-color:#686868"/>
		<stop  offset="1" style="stop-color:#000000"/>
	</linearGradient>
	<path style="fill:url(#SVGID_00000101803976739640768990000010810447259149916044_);stroke:#231F20;stroke-miterlimit:10;" d="
		M485.9,140.4c0-9.3,22.4-16.8,50-16.8s50,7.5,50,16.8v1c0,0,0-2.1,0-3.1c0-1,0-35.7,0-35.7v0.4c0-9.3-22.4-16.8-50-16.8
		c-27.6,0-50,7.5-50,16.8v-0.4c0,0,0,34.5,0,35.7c0,1.2,0,3.1,0,3.1V140.4z"/>
	<g>
		<path class="st6" d="M585.9,102.6c0,0,0,34.7,0,35.7c0,1,0.4,3.1,0.4,3.1c0,9.3-22.8,16.8-50.4,16.8c-27.6,0-50.4-7.5-50.4-16.8
			c0,0,0.4-1.9,0.4-3.1c0-1.2,0-35.7,0-35.7c0,9.3,22.4,16.8,50,16.8S585.9,111.9,585.9,102.6z"/>
	</g>
</g>
<g>
	<line class="st9" x1="498.9" y1="130.6" x2="572.9" y2="130.6"/>
	<line class="st9" x1="498.9" y1="136.6" x2="572.9" y2="136.6"/>
	<line class="st9" x1="498.9" y1="142.6" x2="572.9" y2="142.6"/>
</g>
<g>
	<line class="st9" x1="265.5" y1="130.6" x2="339.5" y2="130.6"/>
	<line class="st9" x1="265.5" y1="136.6" x2="339.5" y2="136.6"/>
	<line class="st9" x1="265.5" y1="142.6" x2="339.5" y2="142.6"/>
</g>
<g>
	<polygon class="st6" points="338.7,96.5 279.4,96.5 266.3,111 325.6,111 	"/>
	<line class="st24" x1="279.4" y1="102.4" x2="328.2" y2="102.4"/>
</g>
<g>
	
		<linearGradient id="SVGID_00000173876797059338727470000004778148076948578445_" gradientUnits="userSpaceOnUse" x1="535.8989" y1="-382.784" x2="535.8989" y2="-438.031" gradientTransform="matrix(1 0 0 -1 0 -334)">
		<stop  offset="9.819999e-02" style="stop-color:#C4C4C4"/>
		<stop  offset="0.5326" style="stop-color:#686868"/>
		<stop  offset="1" style="stop-color:#000000"/>
	</linearGradient>
	<path style="fill:url(#SVGID_00000173876797059338727470000004778148076948578445_);stroke:#231F20;stroke-miterlimit:10;" d="
		M485.9,103c0-9.3,22.4-16.8,50-16.8s50,7.5,50,16.8v1c0,0,0-2.1,0-3.1c0-1,0-35.7,0-35.7v0.4c0-9.3-22.4-16.8-50-16.8
		c-27.6,0-50,7.5-50,16.8v-0.4c0,0,0,34.5,0,35.7c0,1.2,0,3.1,0,3.1V103z"/>
	<g>
		<path class="st6" d="M585.9,65.2c0,0,0,34.7,0,35.7c0,1,0.4,3.1,0.4,3.1c0,9.3-22.8,16.8-50.4,16.8c-27.6,0-50.4-7.5-50.4-16.8
			c0,0,0.4-1.9,0.4-3.1c0-1.2,0-35.7,0-35.7c0,9.3,22.4,16.8,50,16.8S585.9,74.4,585.9,65.2z"/>
	</g>
</g>
<g>
	<polygon class="st6" points="572.1,54.3 512.8,54.3 499.7,68.8 559,68.8 	"/>
	<line class="st24" x1="512.8" y1="60.2" x2="561.6" y2="60.2"/>
</g>
<g>
	<line class="st9" x1="501.3" y1="92.7" x2="575.3" y2="92.7"/>
	<line class="st9" x1="501.3" y1="98.7" x2="575.3" y2="98.7"/>
	<line class="st9" x1="501.3" y1="104.7" x2="575.3" y2="104.7"/>
</g>
<rect x="26.2" y="37.8" class="st2" width="100" height="128"/>
<rect x="26.2" y="37.8" class="st3" width="100" height="128"/>
<line class="st9" x1="39.2" y1="57.8" x2="113.2" y2="57.8"/>
<line class="st9" x1="39.2" y1="63.8" x2="113.2" y2="63.8"/>
<line class="st9" x1="39.2" y1="69.8" x2="113.2" y2="69.8"/>
<rect x="39.8" y="75.8" class="st2" width="100" height="128"/>
<rect x="39.8" y="75.8" class="st3" width="100" height="128"/>
<line class="st24" x1="52.8" y1="99.3" x2="126.8" y2="99.3"/>
<g>
	<rect x="511.6" y="15.3" class="st1" width="100" height="25.4"/>
	<text transform="matrix(1 0 0 1 511.5868 32.3596)" class="st21 st29">HEAD</text>
	<g>
		<g>
			<line class="st24" x1="535.9" y1="34" x2="535.9" y2="48.2"/>
			<g>
				<path class="st28" d="M535.9,60.3c-2.1-5.7-5.7-12.7-9.5-17.1l9.5,3.4l9.5-3.4C541.6,47.6,538,54.6,535.9,60.3z"/>
			</g>
		</g>
	</g>
</g>
</svg>
