<?xml version="1.0" encoding="utf-8"?>
<!-- Generator: Adobe Illustrator 26.3.1, SVG Export Plug-In . SVG Version: 6.00 Build 0)  -->
<svg version="1.1" id="Layer_1" xmlns="http://www.w3.org/2000/svg" xmlns:xlink="http://www.w3.org/1999/xlink" x="0px" y="0px"
	 viewBox="0 0 622 218" style="enable-background:new 0 0 622 218;" xml:space="preserve">
<style type="text/css">
	.st0{fill:#B5B5B5;stroke:#FFFFFF;stroke-miterlimit:10;}
	.st1{fill:none;}
	.st2{font-family:'ArialMT';}
	.st3{font-size:18px;}
	.st4{font-family:'Helvetica';}
	.st5{font-size:12px;}
	.st6{font-family:'MyriadPro-Regular';}
	.st7{fill:#DCDEE0;}
	.st8{fill:none;stroke:#85888D;stroke-width:2;}
	.st9{fill:none;stroke:#6FBE44;stroke-width:2;}
	.st10{fill:url(#SVGID_1_);stroke:#231F20;stroke-miterlimit:10;}
	.st11{fill:#FFFFFF;stroke:#231F20;stroke-miterlimit:10;}
	.st12{fill:#45BEEE;}
	.st13{fill:url(#SVGID_00000139267329381859103410000012877416655347754628_);stroke:#231F20;stroke-miterlimit:10;}
	.st14{fill:none;stroke:#000000;stroke-width:2;}
	.st15{fill:url(#SVGID_00000147899057833629436590000008019522905575442350_);stroke:#231F20;stroke-miterlimit:10;}
	.st16{fill:url(#SVGID_00000178883049460489207150000007462230481813525131_);stroke:#231F20;stroke-miterlimit:10;}
	.st17{fill:url(#SVGID_00000026844701765163509060000017882029666799475584_);stroke:#231F20;stroke-miterlimit:10;}
	.st18{fill:url(#SVGID_00000167369919977182126990000017046993705881310348_);stroke:#231F20;stroke-miterlimit:10;}
	.st19{fill:#FFFFFF;stroke:#000000;stroke-miterlimit:10;}
	.st20{fill:none;stroke:#70BF41;stroke-width:2;}
	.st21{fill:url(#SVGID_00000000934498067508863530000005180055904102005914_);stroke:#231F20;stroke-miterlimit:10;}
	.st22{fill:url(#SVGID_00000025427196947148282050000001970242594219823747_);stroke:#231F20;stroke-miterlimit:10;}
	.st23{fill:url(#SVGID_00000119078109301679081660000007128454181652394374_);stroke:#231F20;stroke-miterlimit:10;}
	.st24{fill:none;stroke:#231F20;stroke-width:2;}
	.st25{fill:url(#SVGID_00000062165340379187240270000000891560324866312350_);stroke:#231F20;stroke-miterlimit:10;}
	.st26{fill:url(#SVGID_00000150076545166115698850000016263525012561270965_);stroke:#231F20;stroke-miterlimit:10;}
	.st27{fill:url(#SVGID_00000118384783220727042920000011928171877253581479_);stroke:#231F20;stroke-miterlimit:10;}
	.st28{fill:#231F20;}
	.st29{font-size:24px;}
</style>
<g id="Layer_5_00000049199391134790861630000004330526260849335936_">
	<path class="st0" d="M598,23c0-8.3-6.7-15-15-15H198c-8.3,0-15,6.7-15,15v167c0,8.3,6.7,15,15,15h385c8.3,0,15-6.7,15-15V23z"/>
	<rect x="197" y="19" class="st1" width="70" height="28"/>
	<text transform="matrix(1 0 0 1 197 31.4199)" class="st2 st3">.git</text>
</g>
<rect x="229" y="166" class="st1" width="147" height="17"/>
<text transform="matrix(1 0 0 1 269.4766 174.6279)" class="st4 st5">staging area</text>
<rect x="464.8" y="179" class="st1" width="147" height="17"/>
<text transform="matrix(1 0 0 1 511.9414 187.6279)" class="st4 st5">repository</text>
<rect x="13" y="9" class="st1" width="140" height="23"/>
<text transform="matrix(1 0 0 1 13 17.52)" class="st6 st5">Working Directory</text>
<g>
	<rect x="19.5" y="42.5" class="st7" width="100" height="128"/>
	<rect x="19.5" y="42.5" class="st8" width="100" height="128"/>
</g>
<g>
	<line class="st9" x1="32.5" y1="66.7" x2="106.5" y2="66.7"/>
	<line class="st9" x1="32.5" y1="72.7" x2="106.5" y2="72.7"/>
	<line class="st9" x1="32.5" y1="78.7" x2="106.5" y2="78.7"/>
</g>
<g>
	<g>
		
			<linearGradient id="SVGID_1_" gradientUnits="userSpaceOnUse" x1="302.499" y1="530.6678" x2="302.499" y2="475.4208" gradientTransform="matrix(1 0 0 -1 0 618)">
			<stop  offset="9.819999e-02" style="stop-color:#C4C4C4"/>
			<stop  offset="0.5326" style="stop-color:#686868"/>
			<stop  offset="1" style="stop-color:#000000"/>
		</linearGradient>
		<path class="st10" d="M252.5,141.6c0-9.3,22.4-16.8,50-16.8s50,7.5,50,16.8v1c0,0,0-2.1,0-3.1c0-1,0-35.7,0-35.7v0.4
			c0-9.3-22.4-16.8-50-16.8s-50,7.5-50,16.8v-0.4c0,0,0,34.5,0,35.7c0,1.2,0,3.1,0,3.1V141.6z"/>
		<g>
			<path class="st11" d="M352.5,103.7c0,0,0,34.7,0,35.7c0,1,0.4,3.1,0.4,3.1c0,9.3-22.8,16.8-50.4,16.8s-50.4-7.5-50.4-16.8
				c0,0,0.4-1.9,0.4-3.1c0-1.2,0-35.7,0-35.7c0,9.3,22.4,16.8,50,16.8S352.5,113,352.5,103.7z"/>
		</g>
	</g>
	<g>
		<line class="st9" x1="265.5" y1="131.5" x2="339.5" y2="131.5"/>
		<line class="st9" x1="265.5" y1="137.5" x2="339.5" y2="137.5"/>
		<line class="st9" x1="265.5" y1="143.5" x2="339.5" y2="143.5"/>
	</g>
</g>
<g>
	<g>
		<rect x="133.4" y="91.6" class="st12" width="46" height="30.6"/>
		<polygon class="st12" points="176,76.4 176,136.6 216.6,106 		"/>
	</g>
	<text transform="matrix(1 0 0 1 146.5759 109.2161)" class="st2 st5">git add</text>
</g>
<g>
	
		<linearGradient id="SVGID_00000133487170199550376860000009160776451814319546_" gradientUnits="userSpaceOnUse" x1="535.899" y1="531.775" x2="535.899" y2="476.528" gradientTransform="matrix(1 0 0 -1 0 618)">
		<stop  offset="9.819999e-02" style="stop-color:#C4C4C4"/>
		<stop  offset="0.5326" style="stop-color:#686868"/>
		<stop  offset="1" style="stop-color:#000000"/>
	</linearGradient>
	<path style="fill:url(#SVGID_00000133487170199550376860000009160776451814319546_);stroke:#231F20;stroke-miterlimit:10;" d="
		M485.9,140.4c0-9.3,22.4-16.8,50-16.8s50,7.5,50,16.8v1c0,0,0-2.1,0-3.1c0-1,0-35.7,0-35.7v0.4c0-9.3-22.4-16.8-50-16.8
		c-27.6,0-50,7.5-50,16.8v-0.4c0,0,0,34.5,0,35.7c0,1.2,0,3.1,0,3.1V140.4z"/>
	<g>
		<path class="st11" d="M585.9,102.6c0,0,0,34.7,0,35.7c0,1,0.4,3.1,0.4,3.1c0,9.3-22.8,16.8-50.4,16.8c-27.6,0-50.4-7.5-50.4-16.8
			c0,0,0.4-1.9,0.4-3.1c0-1.2,0-35.7,0-35.7c0,9.3,22.4,16.8,50,16.8S585.9,111.9,585.9,102.6z"/>
	</g>
</g>
<g>
	<g>
		<rect x="376" y="91.6" class="st12" width="46" height="30.6"/>
		<polygon class="st12" points="418.6,76.4 418.6,136.6 459.1,106 		"/>
	</g>
	<text transform="matrix(1 0 0 1 381.5127 109.2161)" class="st2 st5">git commit</text>
</g>
<g>
	<line class="st14" x1="498.9" y1="130.6" x2="572.9" y2="130.6"/>
	<line class="st14" x1="498.9" y1="136.6" x2="572.9" y2="136.6"/>
	<line class="st14" x1="498.9" y1="142.6" x2="572.9" y2="142.6"/>
</g>
<g>
	<rect x="511.6" y="50.2" class="st1" width="100" height="25.4"/>
	<text transform="matrix(1 0 0 1 511.5868 67.2754)" class="st6 st29">HEAD</text>
	<g>
		<g>
			<line class="st24" x1="535.9" y1="68.9" x2="535.9" y2="83.1"/>
			<g>
				<path class="st28" d="M535.9,95.2c-2.1-5.7-5.7-12.7-9.5-17.1l9.5,3.4l9.5-3.4C541.6,82.5,538,89.5,535.9,95.2z"/>
			</g>
		</g>
	</g>
</g>
</svg>
